<?xml version="1.0" encoding="UTF-8" standalone="no"?>
<!DOCTYPE svg PUBLIC "-//W3C//DTD SVG 1.1//EN" "http://www.w3.org/Graphics/SVG/1.1/DTD/svg11.dtd">
<svg width="100%" height="100%" viewBox="0 0 400 400" version="1.1" xmlns="http://www.w3.org/2000/svg" xmlns:xlink="http://www.w3.org/1999/xlink" xml:space="preserve" xmlns:serif="http://www.serif.com/" style="fill-rule:evenodd;clip-rule:evenodd;stroke-linejoin:round;stroke-miterlimit:2;">
    <g id="ArtBoard1" transform="matrix(0.869565,0,0,0.909091,-86.9565,-90.9091)">
        <rect x="100" y="100" width="460" height="440" style="fill:none;"/>
        <g transform="matrix(1.64286,0,0,1.65877,-34.2705,-85.5913)">
            <path d="M242.73,145.042C261.512,148.433 312.856,191.476 320,204.214C326.291,215.433 345.712,295.842 341,303.686C337.364,309.738 210.047,344.014 193.73,343.985C178.065,343.957 124.896,314.071 117,303.686C110.109,294.622 107.026,209.284 116.852,196.466C126.387,184.028 222.933,141.468 242.73,145.042Z" style="fill:rgb(29,29,29);"/>
        </g>
        <g transform="matrix(1.15,0,0,1.1,100,100)">
            <path d="M297.88,94.836C318.207,112.474 335.766,130.535 340.386,139.23C349.374,156.148 377.117,277.403 370.386,289.23C365.192,298.357 183.31,350.044 160,350C157.751,349.996 154.961,349.537 151.75,348.698L297.88,94.836Z" style="fill:rgb(64,64,64);"/>
        </g>
        <g transform="matrix(1.15,0,0,1.1,100,100)">
            <path d="M222.857,49.824C225.688,49.589 228.093,49.637 230,50C256.832,55.114 330.181,120.021 340.386,139.23C341.054,140.488 341.826,142.323 342.68,144.646L234.734,207.888L222.857,49.824Z" style="fill:rgb(98,98,98);"/>
        </g>
    </g>
</svg>
